# xmcd CD database file
#
# Track frame offsets:
#	182
#	13565
#	29492
#	44635
#	57407
#	75075
#	91772
#	103812
#	115832
#	145520
#	166672
#	179970
#
# Disc length: 2833 seconds
#
# Revision: 6
# Processed by: cddbd v1.4PL0 Copyright (c) Steve Scherf et al.
# Submitted via: CDex 1.50
#
DISCID=940b0f0c
DTITLE=Tito Puente - Top Percussion
DYEAR=1992
DGENRE=Salsa
TTITLE0=Eleguara
TTITLE1=Bragada
TTITLE2=Obatalá Yeza
TTITLE3=Alaumba Chemaché
TTITLE4=Oguere Madeo
TTITLE5=Obaricoso
TTITLE6=Four By Two (part I)
TTITLE7=Conga Alegre
TTITLE8=Ti Mon Bo
TTITLE9=Mon Ti
TTITLE10=Hot Timbales
TTITLE11=Night Ritual
EXTD=YEAR: 1992
EXTT0=
EXTT1=
EXTT2=
EXTT3=
EXTT4=
EXTT5=
EXTT6=
EXTT7=
EXTT8=
EXTT9=
EXTT10=
EXTT11=
PLAYORDER=
